# xmcd CD database file
# Copyright (C) 1997 Ti Kan
# 
# Track frame offsets:
#     150
#     10955
#     21782
#     41942
#     58000
#     84227
#     105772
#     130697
#     145142
#     169747
#     195842
#     221107
#     246752
# 
# Disc length: 3690 seconds
# 
# Revision: 1
# Processed by: cddbd v1.4b41PL1 Copyright (c) Steve Scherf et al.
# Submitted via: DiscPlay 4.0.4
# 
DISCID=a50e680d
DTITLE=Brass Routes - Thirteen Minus One
DYEAR=1900
DGENRE=
TTITLE0=Down To The Nightclub
TTITLE1=Papa's Got A Brand New Bag
TTITLE2=B Up
TTITLE3=Supper Bad
TTITLE4=For The First Time
TTITLE5=Work To Do
TTITLE6=Soul vaccination
TTITLE7=Sing A Simple Song
TTITLE8=What's Going On?
TTITLE9=Cold Sweat
TTITLE10=Pressure
TTITLE11=From The Heart
TTITLE12=What Is Hip?
EXTD=
EXTT0=
EXTT1=
EXTT2=
EXTT3=
EXTT4=
EXTT5=
EXTT6=
EXTT7=
EXTT8=
EXTT9=
EXTT10=
EXTT11=
EXTT12=
PLAYORDER=
